<?xml version="1.0" standalone="no"?>
<!DOCTYPE svg PUBLIC "-//W3C//DTD SVG 20010904//EN"
 "http://www.w3.org/TR/2001/REC-SVG-20010904/DTD/svg10.dtd">
<svg version="1.0" xmlns="http://www.w3.org/2000/svg"
 width="200.000000pt" height="200.000000pt" viewBox="0 0 200.000000 200.000000"
 preserveAspectRatio="xMidYMid meet">

<g transform="translate(0.000000,200.000000) scale(0.100000,-0.100000)"
fill="#000000" stroke="none">
<path d="M1353 1891 c-64 -24 -98 -47 -148 -102 -61 -68 -80 -120 -80 -224 0
-82 3 -96 33 -157 18 -36 47 -80 66 -96 l33 -29 -259 -419 c-143 -230 -264
-421 -269 -425 -6 -3 -65 -18 -131 -34 -104 -24 -122 -25 -129 -13 -7 13 -27
11 -141 -17 l-133 -31 2 -40 c1 -21 6 -51 11 -65 l11 -26 103 24 c173 40 179
42 176 61 -2 14 19 22 117 45 66 15 131 33 144 40 15 7 121 170 288 439 l264
426 45 -15 c67 -23 195 -15 259 17 64 31 134 101 164 165 35 74 40 191 11 267
-28 75 -104 159 -177 194 -75 37 -185 43 -260 15z m256 -66 c166 -91 206 -316
81 -458 -71 -81 -181 -119 -283 -97 -31 6 -59 15 -61 19 -3 4 10 33 29 63 l35
56 58 4 c101 7 160 73 149 166 -9 83 -70 137 -153 136 -120 -1 -191 -122 -132
-227 l25 -45 -34 -53 c-18 -30 -37 -55 -42 -57 -16 -5 -80 79 -95 126 -55 160
24 330 181 388 63 24 178 13 242 -21z"/>
</g>
</svg>
